<?xml version="1.0" encoding="utf-8"?>
<!-- Generator: Adobe Illustrator 15.1.0, SVG Export Plug-In . SVG Version: 6.00 Build 0)  -->
<!DOCTYPE svg PUBLIC "-//W3C//DTD SVG 1.1//EN" "http://www.w3.org/Graphics/SVG/1.1/DTD/svg11.dtd">
<svg version="1.1" xmlns="http://www.w3.org/2000/svg" xmlns:xlink="http://www.w3.org/1999/xlink" x="0px" y="0px" width="819.5px"
	 height="121.5px" viewBox="0 0 819.5 121.5" enable-background="new 0 0 819.5 121.5" xml:space="preserve">
<g id="Layer_1">
	<text transform="matrix(1 0 0 1 -17.7217 289.0508)" display="none" font-family="'Syncopate-Bold'" font-size="175">RIPPLE</text>
	<g>
		<path fill="#908c9e" d="M34.057,119.65H2.355V2.245h79.468c8.545,0,15.793,0.884,21.747,2.649
			c5.952,1.767,10.795,4.272,14.526,7.52c3.73,3.247,6.437,7.165,8.118,11.75c1.679,4.586,2.521,9.698,2.521,15.338
			c0,4.956-0.698,9.286-2.094,12.988c-1.396,3.703-3.276,6.878-5.64,9.527c-2.364,2.65-5.113,4.887-8.246,6.709
			c-3.134,1.824-6.438,3.332-9.912,4.529l38.452,46.397H104.21L68.664,76.413H34.057V119.65z M96.691,39.33
			c0-2.278-0.299-4.215-0.897-5.811c-0.599-1.594-1.639-2.891-3.119-3.888c-1.482-0.996-3.461-1.723-5.938-2.179
			c-2.479-0.455-5.569-0.684-9.271-0.684H34.057v25.123h43.408c3.702,0,6.793-0.228,9.271-0.684c2.478-0.455,4.457-1.182,5.938-2.18
			c1.48-0.996,2.521-2.292,3.119-3.888C96.392,43.546,96.691,41.609,96.691,39.33z"/>
		<path fill="#908c9e" d="M164.025,119.65V2.245h31.702V119.65H164.025z"/>
		<path fill="#908c9e" d="M364.403,42.32c0,5.868-0.854,11.266-2.562,16.193c-1.709,4.928-4.458,9.172-8.246,12.73
			c-3.79,3.562-8.703,6.339-14.74,8.332c-6.039,1.994-13.388,2.99-22.046,2.99h-52.637v37.085H232.47V2.245h84.338
			c8.658,0,16.007,0.982,22.046,2.948c6.038,1.965,10.951,4.729,14.74,8.288c3.788,3.561,6.537,7.791,8.246,12.689
			C363.549,31.07,364.403,36.454,364.403,42.32z M332.36,42.833c0-2.734-0.385-5.084-1.153-7.049
			c-0.77-1.966-2.038-3.574-3.803-4.828c-1.767-1.252-4.074-2.179-6.921-2.777c-2.849-0.598-6.353-0.897-10.51-0.897h-45.801v30.248
			h45.801c4.158,0,7.661-0.24,10.51-0.725c2.848-0.484,5.155-1.311,6.921-2.479c1.765-1.168,3.033-2.692,3.803-4.572
			C331.975,47.875,332.36,45.567,332.36,42.833z"/>
		<path fill="#908c9e" d="M522.566,42.32c0,5.868-0.854,11.266-2.562,16.193s-4.459,9.172-8.246,12.73
			c-3.789,3.562-8.703,6.339-14.74,8.332c-6.039,1.994-13.387,2.99-22.045,2.99h-52.637v37.085h-31.7V2.245h84.337
			c8.658,0,16.006,0.982,22.045,2.948c6.037,1.965,10.951,4.729,14.74,8.288c3.787,3.561,6.537,7.791,8.246,12.689
			C521.713,31.07,522.566,36.454,522.566,42.32z M490.523,42.833c0-2.734-0.385-5.084-1.152-7.049
			c-0.77-1.966-2.039-3.574-3.803-4.828c-1.768-1.252-4.074-2.179-6.922-2.777c-2.85-0.598-6.354-0.897-10.51-0.897h-45.801v30.248
			h45.801c4.156,0,7.66-0.24,10.51-0.725c2.848-0.484,5.154-1.311,6.922-2.479c1.764-1.168,3.033-2.692,3.803-4.572
			C490.139,47.875,490.523,45.567,490.523,42.833z"/>
		<path fill="#908c9e" d="M548.801,119.65V2.245h31.701V93.93h85.707v25.721H548.801z"/>
	</g>
	<path fill="#908c9e" d="M797.662,119.65H691.586V2.245h79.467c8.545,0,15.793,0.884,21.746,2.648
		c5.953,1.768,10.795,4.273,14.527,7.52c3.73,3.248,6.438,7.165,8.117,11.75c1.68,4.586,2.521,9.698,2.521,15.338
		c0,4.956-0.699,9.286-2.094,12.988c-1.396,3.703-3.277,6.878-5.641,9.527c-2.363,2.65-5.113,4.887-8.244,6.709
		c-3.135,1.824-6.801,3.431-9.912,4.529c-3.387,1.193-11.094,3.16-23.344,3.16c-6.5,0-44.588,0-44.588,0v18.2l73.52-0.131V119.65z
		 M785.922,39.33c0-2.278-0.301-4.215-0.898-5.811c-0.598-1.595-1.639-2.891-3.119-3.888c-1.48-0.996-3.461-1.723-5.938-2.18
		c-2.479-0.455-5.57-0.684-9.271-0.684h-42.553v25.123h42.553c3.701,0,6.793-0.228,9.271-0.684c2.477-0.455,4.457-1.182,5.938-2.18
		c1.48-0.996,2.521-2.292,3.119-3.888C785.621,43.545,785.922,41.609,785.922,39.33z"/>
	<path fill="#908c9e" d="M760.998,119.65h-69.412V2.245h79.467c8.545,0,15.793,0.884,21.746,2.648
		c5.953,1.768,10.795,4.273,14.527,7.52c3.73,3.248,6.438,7.165,8.117,11.75c1.68,4.586,2.521,9.698,2.521,15.338
		c0,4.956-0.699,9.286-2.094,12.988c-1.396,3.703-3.277,6.878-5.641,9.527c-2.363,2.65-5.113,4.887-8.244,6.709
		c-3.135,1.824-6.801,3.431-9.912,4.529c-3.387,1.193-11.094,3.16-23.344,3.16c-6.5,0-44.588,0-44.588,0v18.2l36.855-0.131V119.65z
		 M785.922,39.33c0-2.278-0.301-4.215-0.898-5.811c-0.598-1.595-1.639-2.891-3.119-3.888c-1.48-0.996-3.461-1.723-5.938-2.18
		c-2.479-0.455-5.57-0.684-9.271-0.684h-42.553v25.123h42.553c3.701,0,6.793-0.228,9.271-0.684c2.477-0.455,4.457-1.182,5.938-2.18
		c1.48-0.996,2.521-2.292,3.119-3.888C785.621,43.545,785.922,41.609,785.922,39.33z"/>
</g>
<g id="Layer_2" display="none">
</g>
</svg>
